<?xml version="1.0" encoding="utf-8"?>
<!-- Generator: Adobe Illustrator 25.2.1, SVG Export Plug-In . SVG Version: 6.00 Build 0)  -->
<svg version="1.1" id="Layer_1" xmlns="http://www.w3.org/2000/svg" xmlns:xlink="http://www.w3.org/1999/xlink" x="0px" y="0px"
	 viewBox="0 0 30 30" style="enable-background:new 0 0 30 30;" xml:space="preserve">
<style type="text/css">
	.st0{fill:url(#SVGID_1_);}
	.st1{fill:#FFFFFF;}
</style>
<radialGradient id="SVGID_1_" cx="15" cy="15" r="13.3212" fx="2.7278" fy="9.8186" gradientUnits="userSpaceOnUse">
	<stop  offset="2.717173e-07" style="stop-color:#9FDDF9"/>
	<stop  offset="1" style="stop-color:#5A6EB4"/>
</radialGradient>
<circle class="st0" cx="15" cy="15" r="13.32"/>
<g>
	<path class="st1" d="M16.7,12.45c-1.22-1.29-2.5-2.54-3.77-3.78C12.25,8,11.77,7.99,11.11,8.64c-1.35,1.32-2.45,2.41-3.76,3.77
		c-0.37,0.38-0.68,1.14-0.69,1.68c-0.03,2.5-0.02,4.5-0.02,7c0,0.66,0.33,1.02,1.02,1c0.95-0.02,1.9-0.06,2.85,0.01
		c0.54,0.04,0.7-0.15,0.69-0.62c-0.02-0.79,0.01-1.58-0.01-2.38c-0.02-0.63,0.06-1.33,0.79-1.34c0.8-0.01,0.85,0.73,0.84,1.38
		c-0.01,0.73,0.03,1.47-0.01,2.2c-0.03,0.55,0.14,0.79,0.73,0.76c0.88-0.04,1.76,0,2.64-0.01c0.94-0.01,1.18-0.25,1.18-1.22
		c0.01-1.17,0-2.35,0-3.52c0-1.14,0.05-2.29-0.02-3.43C17.32,13.45,17.02,12.79,16.7,12.45z M12.01,16.78
		c-0.48,0-0.87-0.39-0.87-0.87c0-0.48,0.39-0.87,0.87-0.87c0.48,0,0.87,0.39,0.87,0.87C12.88,16.39,12.49,16.78,12.01,16.78z"/>
	<path class="st1" d="M20.88,12.4c-0.02-0.42-0.22-0.92-0.5-1.22c-0.91-1-1.9-1.92-2.85-2.88c-0.5-0.51-1.07-0.69-1.61-0.15
		c-0.52,0.52-0.29,1.07,0.18,1.54c0.79,0.79,1.61,1.55,2.34,2.39c0.29,0.34,0.53,0.86,0.54,1.3c0.05,2.52,0.03,4.86,0.02,7.39
		c0,0.64,0.18,1.3,0.91,1.31c0.77,0.02,1.01-0.63,1-1.32c-0.01-1.41,0-2.64,0-4.04C20.9,15.28,20.94,13.84,20.88,12.4z"/>
	<path class="st1" d="M24.47,12.4c-0.02-0.42,0.17-1.78-0.75-2.7c-0.95-0.95-1.65-1.67-2.6-2.63c-0.5-0.51-1.07-0.69-1.61-0.15
		C18.99,7.45,19.22,8,19.69,8.47c0.79,0.79,1.55,1.6,2.34,2.39c0.52,0.52,0.53,2.08,0.54,2.52c0.05,2.52,0.03,4.86,0.02,7.39
		c0,0.64,0.18,1.3,0.91,1.31c0.77,0.02,1.01-0.63,1-1.32c-0.01-1.41,0-2.64,0-4.04C24.49,15.28,24.53,13.84,24.47,12.4z"/>
</g>
</svg>
